<svg xmlns="http://www.w3.org/2000/svg" viewBox="0 0 283.94 434.81"><defs><style>.cls-1{opacity:0.23;}.cls-2{fill:#fff;}</style></defs><title>Asset 13</title><g id="Layer_2" data-name="Layer 2"><g id="Layer_1-2" data-name="Layer 1"><g class="cls-1"><path class="cls-2" d="M0,379.7,55.58,327q31.41,34.3,72.5,34.29,29.59,0,50.75-19.6,23.56-22,23.56-55.12,0-35.51-26-58.18-19.34-17.14-51.35-17.15-34.44,0-62.23,23.27l-50.75-7.35L39.27,0H262.79V73.49H105.72l-6.65,67.37a153.24,153.24,0,0,1,32.62-3.06q59.2,0,98.47,32.46,24.76,20.21,39.27,51.14a151.84,151.84,0,0,1,14.5,65.22q0,63.08-45.61,105.64T128.07,434.81Q54.36,434.81,0,379.7Z"/></g></g></g></svg>