<svg xmlns="http://www.w3.org/2000/svg" viewBox="0 0 1981.52 440.94"><defs><style>.cls-1{opacity:0.23;}.cls-2{fill:#fff;}</style></defs><title>Asset 15</title><g id="Layer_2" data-name="Layer 2"><g id="Layer_1-2" data-name="Layer 1"><g class="cls-1"><path class="cls-2" d="M222.32,73.49q-59.81,0-100.29,42.87T81.56,220.47q0,62.47,41.69,104.72t102.7,42.26q74.31,0,119.62-59.4l56.18,50.83q-29,37.36-75.21,59.71t-102.4,22.35q-97.87,0-161-63.38T0,220.47q0-93.7,62.83-157.08T222.92,0q92.43,0,154.66,61.24L325,117.58Q281.52,73.49,222.32,73.49Z"/><path class="cls-2" d="M450.07,434.81V6.12h81.56V434.81Z"/><path class="cls-2" d="M869.94,79.61H697.76v88.8H827.65V241.9H697.76V361.32H876v73.49H616.21V6.12H869.94Z"/><path class="cls-2" d="M1047.54,245h-29.6V434.81H936.38V6.12h154.05q58,0,92.43,31.85,37.45,36.14,37.46,87.58t-37.46,87.57a111.42,111.42,0,0,1-42.29,25.11l158.28,196.58H1198Zm-29.6-73.49h67.66q29.59,0,41.08-12.86,12.08-13.46,12.08-32.46,0-19.59-12.08-33.07T1085.6,79.61h-67.66Z"/><path class="cls-2" d="M1440.22,245h-29.6V434.81h-81.56V6.12h154.05q58,0,92.43,31.85Q1613,74.11,1613,125.54t-37.46,87.57a111.42,111.42,0,0,1-42.29,25.11l158.28,196.58H1590.65Zm-29.6-73.49h67.66q29.59,0,41.08-12.86,12.08-13.46,12.08-32.46,0-19.59-12.08-33.07t-41.08-13.47h-67.66Z"/><path class="cls-2" d="M1975.48,79.61H1803.3v88.8h129.89V241.9H1803.3V361.32h178.22v73.49H1721.75V6.12h253.73Z"/></g></g></g></svg>