<svg xmlns="http://www.w3.org/2000/svg" viewBox="0 0 1788.21 440.94"><defs><style>.cls-1{opacity:0.23;}.cls-2{fill:#fff;}</style></defs><title>Asset 16</title><g id="Layer_2" data-name="Layer 2"><g id="Layer_1-2" data-name="Layer 1"><g class="cls-1"><path class="cls-2" d="M0,434.81V6.12H81.56V434.81Z"/><path class="cls-2" d="M166.13,434.81V6.12h57.39L459.13,285.38V6.12h81.56V434.81H483.3L247.69,155.55V434.81Z"/><path class="cls-2" d="M625.27,434.81V6.12h81.56V434.81Z"/><path class="cls-2" d="M983.51,73.49q-59.81,0-100.29,42.87T842.75,220.47q0,62.47,41.69,104.72t102.7,42.26q74.31,0,119.62-59.4l56.18,50.83q-29,37.36-75.21,59.71t-102.4,22.35q-97.87,0-161-63.38T761.2,220.47q0-93.7,62.83-157.08T984.12,0q92.43,0,154.66,61.24l-52.56,56.34Q1042.72,73.49,983.51,73.49Z"/><path class="cls-2" d="M1211.27,434.81V6.12h81.56V434.81Z"/><path class="cls-2" d="M1409.12,377.25q-61.93-63.69-61.92-156.78t61.92-156.78Q1471,0,1567.7,0t158.58,63.69q61.92,63.7,61.92,156.78t-61.92,156.78q-61.93,63.7-158.58,63.69T1409.12,377.25Zm59.51-260.89q-39.87,42.87-39.87,104.11t39.87,104.11q39.87,42.87,99.08,42.87t99.08-42.87q39.87-42.86,39.87-104.11t-39.87-104.11q-39.87-42.86-99.08-42.87T1468.63,116.36Z"/></g></g></g></svg>