<?xml version="1.0" encoding="utf-8"?>
<!-- Generator: Adobe Illustrator 21.0.2, SVG Export Plug-In . SVG Version: 6.00 Build 0)  -->
<svg version="1.1" id="Layer_1" xmlns="http://www.w3.org/2000/svg" xmlns:xlink="http://www.w3.org/1999/xlink" x="0px" y="0px"
	 viewBox="0 0 265.5 91" style="enable-background:new 0 0 265.5 91;" xml:space="preserve">
<style type="text/css">
	.st0{opacity:0.24;fill:#5A5D66;}
	.st1{fill:#5A5D66;}
	.st2{fill:#F7F7F7;}
	.st3{fill:#3D3F45;}
	.st4{fill:none;stroke:#5A5D66;stroke-width:3;stroke-miterlimit:10;}
</style>
<title>logos</title>
<polygon class="st0" points="0,72.2 39.3,72 27.9,0 "/>
<g id="Layer_2">
	<g id="Layer_1-2">
		<polygon class="st1" points="0,72.2 27.8,88.2 54.2,86 54.2,72.2 		"/>
		<rect x="27.9" class="st2" width="237.6" height="87"/>
		<polyline class="st3" points="165.3,30.2 165.3,52.8 166.3,52.8 166.3,30.2 		"/>
		<polygon class="st3" points="186.4,49.6 190.9,49.6 190.9,51.8 183.9,51.8 183.9,39.9 186.4,39.9 		"/>
		<path class="st3" d="M192.6,47.9v-8h2.6v7.9c0.1,1.2,1.2,2.1,2.5,1.9c1-0.1,1.8-0.9,1.9-1.9v-7.9h2.5v8c0,2.7-2.2,4.1-4.7,4.1
			S192.5,50.6,192.6,47.9"/>
		<polygon class="st3" points="215.6,39.9 216.5,39.9 216.5,51.9 214,51.9 214,45.4 211,49.2 210.7,49.2 207.7,45.4 207.7,51.9 
			205.1,51.9 205.1,39.9 206.1,39.9 210.8,45.6 		"/>
		<polygon class="st3" points="222.3,45 222.3,51.9 219.7,51.9 219.7,39.9 220.5,39.9 227.2,46.7 227.2,39.9 229.8,39.9 229.8,51.9 
			229,51.9 		"/>
		<rect x="178.2" y="39.9" class="st3" width="2.6" height="11.9"/>
		<path class="st3" d="M235.2,47.5c-0.9-1.6-0.2-3.7,1.4-4.5c1-0.5,2.2-0.5,3.1,0l1.4-2.6c-3-1.7-6.8-0.6-8.5,2.5c-1,1.9-1,4.1,0,6
			L235.2,47.5z"/>
		<path class="st3" d="M243.6,42.9l-2.6,1.4c0.9,1.6,0.3,3.6-1.3,4.5c-1,0.6-2.2,0.6-3.2,0l-1.4,2.6c3,1.7,6.8,0.6,8.5-2.5
			C244.6,47,244.6,44.8,243.6,42.9"/>
		<path class="st3" d="M180.3,33.2l-1.8-2.3h-0.3v4.5h0.8v-2.8l1.3,1.7h0.1l1.3-1.7v2.8h0.8v-4.5h-0.3L180.3,33.2z M184.8,34.8v-3.3
			h0.6v-0.6h-2.1v0.6h0.6v3.3h-0.7v0.6h2.2v-0.6H184.8z M189.2,30.9h-2.7v4.5h2.8v-0.7h-2v-1.3h1.9v-0.7h-1.9v-1.2h2L189.2,30.9z
			 M192.4,33.2l-1.8-2.3h-0.3v4.5h0.7v-2.8l1.3,1.7h0.1l1.3-1.7v2.8h0.8v-4.5h-0.3L192.4,33.2z M199,32.2c0-0.7-0.5-1.3-1.2-1.3
			c-0.1,0-0.1,0-0.2,0h-1.8v4.5h2c0.7,0.1,1.3-0.4,1.4-1.1c0-0.1,0-0.1,0-0.2c0-0.5-0.3-0.9-0.7-1C198.8,33,199,32.6,199,32.2
			 M197.5,31.6c0.4,0,0.7,0.2,0.7,0.6s-0.3,0.6-0.7,0.6h-1v-1.3L197.5,31.6z M197.6,33.5c0.2,0,0.4,0,0.6,0.1
			c0.2,0.1,0.2,0.3,0.2,0.5c0,0.4-0.3,0.7-0.7,0.7c0,0,0,0-0.1,0h-1.2v-1.4L197.6,33.5z M202.6,33.8c0.6-0.2,0.9-0.7,0.9-1.3
			c0-0.8-0.6-1.5-1.4-1.5c-0.1,0-0.1,0-0.2,0h-1.9v4.5h0.8v-1.6h1l1.1,1.6h0.8v-0.1L202.6,33.8z M200.9,33.3v-1.7h1.1
			c0.4,0,0.8,0.3,0.8,0.8c0,0,0,0,0,0c0,0.4-0.3,0.8-0.8,0.8c0,0,0,0-0.1,0L200.9,33.3z M209,33.2c0-1.3-1.1-2.3-2.3-2.2
			c-1.3,0-2.3,1.1-2.2,2.3c0,1.2,1,2.2,2.3,2.2c1.2,0,2.3-0.9,2.3-2.1C209,33.4,209,33.3,209,33.2 M205.1,33.2
			c0-0.8,0.8-1.5,1.6-1.5s1.5,0.8,1.5,1.6c0,0.8-0.7,1.5-1.5,1.5c-0.8,0-1.5-0.6-1.5-1.5C205.1,33.3,205.1,33.3,205.1,33.2
			 M211.7,31v4.5h1.6c1.2,0,2.2-1,2.2-2.2s-1-2.2-2.2-2.2L211.7,31z M212.4,34.8v-3.2h0.9c0.9,0,1.6,0.7,1.6,1.6s-0.7,1.6-1.6,1.6
			l0,0L212.4,34.8z M219.2,31h-2.7v4.5h2.8v-0.7h-2v-1.4h1.9v-0.7h-1.9v-1.2h2L219.2,31z M222.8,31h-0.8v4.5h2.7v-0.7h-1.9V31z
			 M228.3,34.6l0.4,0.9h0.8v-0.1l-2.1-4.4h-0.4l-2.1,4.4v0.1h0.8l0.4-0.9H228.3z M227.3,32.1l0.8,1.8h-1.6L227.3,32.1z M234.3,33.8
			c0.6-0.2,1-0.7,0.9-1.3c0-0.8-0.6-1.5-1.4-1.5c0,0-0.1,0-0.1,0h-1.9v4.5h0.8v-1.6h1l1.1,1.6h0.8v-0.1L234.3,33.8z M232.6,33.3
			v-1.7h1.1c0.4,0,0.8,0.3,0.8,0.8c0,0,0,0,0,0c0,0.4-0.3,0.8-0.8,0.8c0,0,0,0-0.1,0L232.6,33.3z M238.9,31h-2.7v4.5h2.8v-0.7h-2
			v-1.4h1.9v-0.7H237v-1.2h2L238.9,31z M239.9,31v4.5h1.6c1.2,0,2.2-1,2.2-2.2s-1-2.2-2.2-2.2H239.9z M240.7,34.8v-3.2h0.9
			c0.9,0,1.6,0.7,1.6,1.6s-0.7,1.6-1.6,1.6l0,0L240.7,34.8z"/>
		<path class="st3" d="M116.9,42.7h-0.2v-9.9h0.2c2.7,0.4,4.7,2.9,4.3,5.6C120.9,40.6,119.2,42.4,116.9,42.7 M116.9,30.3h-1.5
			c-0.7,0-1.2,0.6-1.2,1.2V44c0,0.7,0.6,1.2,1.2,1.2h1.5c4.1,0,7.5-3.3,7.5-7.5C124.4,33.6,121,30.3,116.9,30.3 M139.2,30.3
			c-0.7,0-1.2,0.6-1.2,1.2v5.6l-5.4-6.5c-0.4-0.5-1.2-0.6-1.8-0.2c-0.3,0.2-0.5,0.6-0.4,1V44c0,0.7,0.6,1.2,1.2,1.2s1.2-0.6,1.2-1.2
			v-9l5.1,6.1V44c0,0.7,0.6,1.2,1.2,1.2s1.2-0.6,1.2-1.2V31.5C140.5,30.8,139.9,30.3,139.2,30.3 M127.1,30.3c-0.7,0-1.2,0.6-1.2,1.2
			V44c0,0.7,0.6,1.2,1.2,1.2s1.2-0.6,1.2-1.2V31.5C128.3,30.8,127.8,30.3,127.1,30.3 M111,30.3c-0.7,0-1.2,0.6-1.2,1.2v5.6l-5.4-6.5
			c-0.4-0.5-1.2-0.6-1.8-0.2c-0.3,0.2-0.5,0.6-0.4,1V44c0,0.7,0.6,1.2,1.2,1.2s1.2-0.6,1.2-1.2v-9l5.1,6.1V44c0,0.7,0.6,1.2,1.2,1.2
			s1.2-0.6,1.2-1.2V31.5C112.2,30.8,111.7,30.3,111,30.3 M83.8,37.2c0.3,0,0.6,0.2,0.6,0.5c0,0.3-0.2,0.6-0.5,0.6c0,0,0,0,0,0
			c-0.6,0-1.2-0.2-1.7-0.5C82.6,37.4,83.2,37.2,83.8,37.2 M85.7,33.6c0.5,0.5,1.3,0.5,1.8,0c0.5-0.5,0.5-1.3,0-1.8
			c-2-2-5.4-2.1-7.4,0c-1,1-1.6,2.4-1.5,3.8c0,0.8,0.2,1.5,0.7,2.2c-0.4,0.6-0.6,1.4-0.7,2.2c0,2.9,2.3,5.3,5.2,5.3
			c1.4,0,2.8-0.5,3.8-1.5c0.5-0.5,0.5-1.3,0-1.8c-0.5-0.5-1.3-0.5-1.8,0l0,0c-1.1,1.1-2.8,1.1-3.9,0c-0.6-0.6-0.9-1.4-0.8-2.2
			c0.8,0.6,1.8,0.9,2.7,0.9c1.6,0.1,3-1.1,3.1-2.7c0.1-1.6-1.1-3-2.7-3.1c-0.1,0-0.2,0-0.3,0c-1,0-1.9,0.3-2.7,0.9
			c-0.1-1.5,1-2.8,2.5-3C84.3,32.7,85.1,33,85.7,33.6 M94.7,39c-1.7,0-3.1-1.4-3.1-3.1s1.4-3.1,3.1-3.1s3.1,1.4,3.1,3.1
			S96.4,39,94.7,39L94.7,39 M94.7,30.3c-3.1,0-5.6,2.5-5.6,5.6l0,0v8c0,0.7,0.6,1.2,1.2,1.2s1.2-0.6,1.2-1.2v-3.3
			c1.9,1.3,4.3,1.3,6.2,0V44c0,0.7,0.6,1.2,1.2,1.2s1.2-0.6,1.2-1.2v-8C100.3,32.9,97.8,30.3,94.7,30.3L94.7,30.3 M59.8,39
			c-1.7,0-3.1-1.4-3.1-3.1s1.4-3.1,3.1-3.1s3.1,1.4,3.1,3.1S61.5,39,59.8,39L59.8,39 M59.8,30.3c-3.1,0-5.6,2.5-5.6,5.6l0,0v8
			c0,0.7,0.6,1.2,1.2,1.2s1.2-0.6,1.2-1.2v-3.3c1.9,1.3,4.3,1.3,6.2,0V44c0,0.7,0.6,1.2,1.2,1.2c0.7,0,1.2-0.6,1.2-1.2v-8
			C65.4,32.9,62.9,30.3,59.8,30.3L59.8,30.3 M72.2,38c-1.4,0-2.6-1.1-2.6-2.6s1.1-2.6,2.6-2.6c1.4,0,2.6,1.1,2.6,2.5
			C74.8,36.8,73.6,38,72.2,38 M77.3,35.4c0-2.8-2.3-5.1-5.1-5.1c-2.8,0-5.1,2.3-5.1,5.1V44c0,0.7,0.6,1.2,1.2,1.2s1.2-0.6,1.2-1.2
			v-4.3l5.1,5.1c0.5,0.5,1.3,0.4,1.8-0.1c0.4-0.5,0.4-1.2,0-1.7l-2.9-2.9C75.8,39.6,77.3,37.6,77.3,35.4 M147.9,39
			c-1.7,0-3.1-1.4-3.1-3.1c0-1.7,1.4-3.1,3.1-3.1c1.7,0,3.1,1.4,3.1,3.1C151,37.6,149.6,39,147.9,39C147.9,39,147.9,39,147.9,39
			 M147.9,30.3c-3.1,0-5.6,2.5-5.6,5.6l0,0v8c0,0.7,0.6,1.2,1.2,1.2s1.2-0.6,1.2-1.2v-3.3c1.9,1.3,4.3,1.3,6.2,0V44
			c0,0.7,0.6,1.2,1.2,1.2s1.2-0.6,1.2-1.2v-8C153.5,32.9,150.9,30.3,147.9,30.3L147.9,30.3"/>
		<path class="st3" d="M103.2,52.8c-0.1,0-0.3,0.1-0.4,0c-0.3,0-0.7-0.1-0.9-0.4c-0.2-0.2-0.2-0.5-0.2-0.8v-0.9h-0.7v-0.6h0.7v-0.7
			h0.7v0.7h0.9v0.6h-0.9v1c0,0.1,0,0.2,0.1,0.3c0.1,0.1,0.2,0.1,0.4,0.1c0.1,0,0.2,0,0.3,0L103.2,52.8z"/>
		<path class="st3" d="M105.6,51.1c-0.2-0.2-0.4-0.3-0.7-0.3c-0.4,0-0.7,0.4-0.6,0.8c0,0.3,0.3,0.6,0.6,0.6c0.2,0,0.5-0.1,0.6-0.3
			L105.6,51.1z M106.3,52.8h-0.7v-0.2c-0.2,0.2-0.5,0.3-0.7,0.3c-0.4,0-0.7-0.2-1-0.4c-0.2-0.3-0.3-0.6-0.3-0.9
			c0-0.7,0.5-1.3,1.3-1.4c0,0,0,0,0,0c0.3,0,0.6,0.1,0.8,0.3v-0.2h0.7L106.3,52.8z"/>
		<path class="st3" d="M108.6,50.8c-0.1,0-0.2,0-0.2,0c-0.3,0-0.5,0.2-0.6,0.4v1.7H107v-2.7h0.7v0.3c0.2-0.2,0.5-0.3,0.8-0.3h0.2
			L108.6,50.8z"/>
		<path class="st3" d="M109.7,52.8H109v-2.6h0.7L109.7,52.8z M109.4,48.8c0.2,0,0.4,0.2,0.4,0.5s-0.2,0.4-0.5,0.4
			c-0.2,0-0.4-0.2-0.4-0.4C108.9,49,109.1,48.8,109.4,48.8C109.4,48.8,109.4,48.8,109.4,48.8"/>
		<path class="st3" d="M112.2,51.1c-0.2-0.2-0.4-0.3-0.7-0.3c-0.4,0-0.7,0.4-0.6,0.8c0,0.3,0.3,0.6,0.6,0.6c0.2,0,0.5-0.1,0.6-0.3
			L112.2,51.1z M112.9,52.8h-0.7v-0.2c-0.2,0.2-0.5,0.3-0.7,0.3c-0.4,0-0.7-0.2-1-0.4c-0.2-0.3-0.3-0.6-0.3-0.9
			c0-0.7,0.5-1.3,1.3-1.4c0,0,0,0,0,0c0.3,0,0.6,0.1,0.8,0.3v-0.2h0.7L112.9,52.8z"/>
		<path class="st3" d="M116.6,51.1c-0.2-0.2-0.4-0.3-0.7-0.3c-0.4,0-0.7,0.4-0.6,0.8c0,0.3,0.3,0.6,0.6,0.6c0.2,0,0.5-0.1,0.6-0.3
			L116.6,51.1z M116.6,52.8v-0.2c-0.2,0.2-0.5,0.3-0.7,0.3c-0.4,0-0.7-0.2-1-0.4c-0.2-0.3-0.3-0.6-0.3-0.9c0-0.7,0.5-1.3,1.3-1.4
			c0,0,0,0,0,0c0.3,0,0.5,0.1,0.7,0.2v-1.4h0.7v3.8H116.6z"/>
		<path class="st3" d="M119.6,51.1c0-0.3-0.3-0.5-0.5-0.5c-0.3,0-0.5,0.2-0.6,0.5H119.6z M120.2,52.3c-0.3,0.3-0.7,0.5-1.1,0.5
			c-0.7,0-1.3-0.5-1.4-1.2c0,0,0-0.1,0-0.1c0-0.7,0.5-1.3,1.2-1.4c0,0,0,0,0,0c0.7,0,1.3,0.6,1.2,1.3c0,0,0,0,0,0v0.2h-1.8
			c0,0.4,0.3,0.6,0.7,0.6c0.3,0,0.5-0.1,0.7-0.3L120.2,52.3z"/>
		<rect x="120.8" y="48.9" class="st3" width="0.7" height="3.8"/>
		<path class="st3" d="M128.5,50.8c-0.1,0-0.2,0-0.2,0c-0.3,0-0.5,0.2-0.6,0.4v1.7h-0.7v-2.7h0.7v0.3c0.2-0.2,0.5-0.3,0.8-0.3h0.2
			L128.5,50.8z"/>
		<path class="st3" d="M130.6,51.1c0-0.3-0.3-0.5-0.5-0.5c-0.3,0-0.5,0.2-0.6,0.5H130.6z M131.2,52.3c-0.3,0.3-0.7,0.5-1.1,0.5
			c-0.7,0-1.3-0.5-1.4-1.2c0,0,0-0.1,0-0.1c0-0.7,0.5-1.3,1.2-1.4c0,0,0,0,0.1,0c0.7,0,1.3,0.6,1.2,1.3c0,0,0,0,0,0v0.2h-1.8
			c0,0.4,0.3,0.6,0.7,0.6c0.3,0,0.5-0.1,0.7-0.3L131.2,52.3z"/>
		<path class="st3" d="M133.7,51.1c-0.2-0.2-0.4-0.3-0.6-0.3c-0.4,0-0.7,0.4-0.6,0.8c0,0.3,0.3,0.6,0.6,0.6c0.2,0,0.5-0.1,0.6-0.3
			L133.7,51.1z M134.4,52.8h-0.7v-0.2c-0.2,0.2-0.5,0.3-0.7,0.3c-0.4,0-0.7-0.2-1-0.4c-0.2-0.3-0.3-0.6-0.3-0.9
			c0-0.7,0.5-1.3,1.3-1.4c0,0,0,0,0,0c0.3,0,0.6,0.1,0.8,0.3v-0.2h0.7L134.4,52.8z"/>
		<path class="st3" d="M137.1,51.3h1l-0.5-1.1L137.1,51.3z M135.7,52.8l1.6-3.8h0.5l1.6,3.8h-0.8l-0.4-0.8h-1.5l-0.4,0.8L135.7,52.8
			z"/>
		<path class="st3" d="M139.8,52.8v-2.6h0.7v0.2c0.2-0.2,0.5-0.3,0.7-0.3c0.4,0,0.7,0.2,0.9,0.4c0.2,0.3,0.3,0.6,0.3,0.9v1.3h-0.7
			v-1.4c0-0.2,0-0.4-0.1-0.5c-0.1-0.1-0.3-0.2-0.4-0.2c-0.3,0-0.5,0.1-0.6,0.3v1.7H139.8z"/>
		<path class="st3" d="M144.9,51.1c-0.2-0.2-0.4-0.3-0.6-0.3c-0.4,0-0.7,0.4-0.6,0.8c0,0.3,0.3,0.6,0.6,0.6c0.2,0,0.5-0.1,0.6-0.3
			L144.9,51.1z M144.9,52.8v-0.2c-0.2,0.2-0.5,0.3-0.7,0.3c-0.4,0-0.7-0.2-1-0.4c-0.2-0.3-0.3-0.6-0.3-0.9c0-0.7,0.5-1.3,1.3-1.4
			c0,0,0,0,0,0c0.3,0,0.5,0.1,0.7,0.2v-1.4h0.7v3.8H144.9z"/>
		<path class="st3" d="M147,52.8h-0.7v-2.6h0.7V52.8z M146.6,48.8c0.2,0,0.4,0.2,0.4,0.5s-0.2,0.4-0.5,0.4c-0.2,0-0.4-0.2-0.4-0.4
			C146.2,49,146.4,48.8,146.6,48.8C146.6,48.8,146.6,48.8,146.6,48.8"/>
		<path class="st3" d="M147.7,52.8v-2.6h0.7v0.2c0.2-0.2,0.5-0.3,0.7-0.3c0.4,0,0.7,0.2,0.9,0.4c0.2,0.3,0.3,0.6,0.3,0.9v1.3h-0.7
			v-1.4c0-0.2,0-0.4-0.2-0.5c-0.1-0.1-0.3-0.2-0.4-0.2c-0.3,0-0.5,0.1-0.6,0.3v1.7H147.7z"/>
		<path class="st3" d="M152.8,51.1c-0.2-0.2-0.4-0.3-0.6-0.3c-0.4,0-0.7,0.4-0.6,0.8c0,0.3,0.3,0.6,0.6,0.6c0.2,0,0.5-0.1,0.6-0.3
			L152.8,51.1z M153.4,52.8h-0.7v-0.2c-0.2,0.2-0.5,0.3-0.7,0.3c-0.4,0-0.7-0.2-1-0.4c-0.2-0.3-0.3-0.6-0.3-0.9
			c0-0.7,0.5-1.3,1.3-1.4c0,0,0,0,0,0c0.3,0,0.6,0.1,0.8,0.3v-0.2h0.7V52.8z"/>
		<path class="st3" d="M124.2,51.3l0.5-1.1l0.5,1.1H124.2z M125,49h-0.5l-1.6,3.8h0.8L124,52h1.5l0.4,0.8h0.8L125,49z M125.7,47.8
			h-0.9l-0.3,0.8h0.6L125.7,47.8z"/>
	</g>
</g>
<line class="st4" x1="265.5" y1="86.7" x2="27.8" y2="86.7"/>
</svg>
