<svg xmlns="http://www.w3.org/2000/svg" xmlns:xlink="http://www.w3.org/1999/xlink" viewBox="0 0 614.28 922.09"><defs><style>.cls-1{fill:none;}.cls-2{isolation:isolate;}.cls-3{opacity:0.26;}.cls-4{mix-blend-mode:hard-light;}.cls-5{clip-path:url(#clip-path);}.cls-6{fill:#4c9f38;}.cls-7{clip-path:url(#clip-path-2);}.cls-8{fill:#d7c0bb;}.cls-9{clip-path:url(#clip-path-3);}.cls-10{fill:#c8cecb;}.cls-11{clip-path:url(#clip-path-4);}.cls-12{fill:#a9bec3;}.cls-13{clip-path:url(#clip-path-5);}.cls-14{fill:#d4cfce;}.cls-15{clip-path:url(#clip-path-6);}.cls-16{fill:#e3dddb;}.cls-17{clip-path:url(#clip-path-7);}.cls-18{fill:#766c68;}.cls-19{clip-path:url(#clip-path-8);}.cls-20{fill:#958c8a;}.cls-21{clip-path:url(#clip-path-9);}.cls-22{fill:#69b433;}.cls-23{clip-path:url(#clip-path-10);}.cls-24{fill:#9d9490;}.cls-25{clip-path:url(#clip-path-11);}.cls-26{fill:#fff;}.cls-27{clip-path:url(#clip-path-12);}.cls-28{fill:#d2cbca;}.cls-29{clip-path:url(#clip-path-13);}.cls-30{fill:#82948f;}.cls-31{clip-path:url(#clip-path-14);}.cls-32{fill:#437982;}.cls-33{clip-path:url(#clip-path-15);}.cls-34{clip-path:url(#clip-path-16);}.cls-35{fill:#4c535b;}.cls-36{clip-path:url(#clip-path-17);}.cls-37{fill:#89a37c;}.cls-38{clip-path:url(#clip-path-18);}.cls-39{fill:#4ba334;}.cls-40{clip-path:url(#clip-path-19);}.cls-41{clip-path:url(#clip-path-20);}.cls-42{fill:#d0ccc6;}.cls-43{clip-path:url(#clip-path-21);}.cls-44{clip-path:url(#clip-path-22);}.cls-45{fill:#adb0b3;}.cls-46{clip-path:url(#clip-path-23);}.cls-47{fill:#bda29c;}.cls-48{clip-path:url(#clip-path-24);}.cls-49{clip-path:url(#clip-path-25);}.cls-50{fill:#5f5855;}.cls-51{fill:#00a43d;}.cls-52{clip-path:url(#clip-path-26);}.cls-53{fill:#4c4440;}.cls-54{clip-path:url(#clip-path-27);}.cls-55{fill:#35383c;}.cls-56{clip-path:url(#clip-path-28);}.cls-57{fill:#d8d3d1;}</style><clipPath id="clip-path" transform="translate(-17.35)"><rect class="cls-1" x="245.71" y="270.22" width="157.56" height="157.29"/></clipPath><clipPath id="clip-path-2" transform="translate(-17.35)"><rect class="cls-1" x="245.71" y="412.08" width="157.56" height="157.29"/></clipPath><clipPath id="clip-path-3" transform="translate(-17.35)"><rect class="cls-1" x="245.71" y="270.21" width="157.56" height="86.37"/></clipPath><clipPath id="clip-path-4" transform="translate(-17.35)"><rect class="cls-1" x="245.73" y="199.29" width="157.54" height="157.25"/></clipPath><clipPath id="clip-path-5" transform="translate(-17.35)"><rect class="cls-1" x="245.71" y="341.16" width="157.56" height="157.28"/></clipPath><clipPath id="clip-path-6" transform="translate(-17.35)"><rect class="cls-1" x="368.56" y="483.01" width="157.56" height="157.29"/></clipPath><clipPath id="clip-path-7" transform="translate(-17.35)"><rect class="cls-1" x="245.71" y="553.95" width="157.56" height="157.29"/></clipPath><clipPath id="clip-path-8" transform="translate(-17.35)"><rect class="cls-1" x="245.71" y="483.01" width="157.56" height="157.29"/></clipPath><clipPath id="clip-path-9" transform="translate(-17.35)"><rect class="cls-1" x="122.85" y="483.01" width="157.56" height="157.29"/></clipPath><clipPath id="clip-path-10" transform="translate(-17.35)"><rect class="cls-1" x="122.85" y="270.22" width="157.56" height="157.29"/></clipPath><clipPath id="clip-path-11" transform="translate(-17.35)"><rect class="cls-1" x="122.85" y="412.08" width="157.56" height="157.29"/></clipPath><clipPath id="clip-path-12" transform="translate(-17.35)"><rect class="cls-1" x="122.85" y="199.29" width="157.56" height="157.29"/></clipPath><clipPath id="clip-path-13" transform="translate(-17.35)"><rect class="cls-1" x="122.85" y="199.29" width="157.56" height="86.36"/></clipPath><clipPath id="clip-path-14" transform="translate(-17.35)"><rect class="cls-1" x="122.87" y="128.36" width="157.55" height="157.26"/></clipPath><clipPath id="clip-path-15" transform="translate(-17.35)"><rect class="cls-1" x="368.56" y="341.14" width="157.56" height="86.37"/></clipPath><clipPath id="clip-path-16" transform="translate(-17.35)"><rect class="cls-1" x="368.6" y="270.22" width="157.53" height="157.24"/></clipPath><clipPath id="clip-path-17" transform="translate(-17.35)"><rect class="cls-1" x="122.85" y="553.95" width="157.56" height="157.29"/></clipPath><clipPath id="clip-path-18" transform="translate(-17.35)"><rect class="cls-1" y="412.08" width="157.56" height="157.29"/></clipPath><clipPath id="clip-path-19" transform="translate(-17.35)"><rect class="cls-1" x="491.42" y="412.08" width="157.56" height="157.29"/></clipPath><clipPath id="clip-path-20" transform="translate(-17.35)"><rect class="cls-1" x="368.56" y="341.16" width="157.56" height="157.28"/></clipPath><clipPath id="clip-path-21" transform="translate(-17.35)"><rect class="cls-1" y="553.95" width="157.56" height="157.29"/></clipPath><clipPath id="clip-path-22" transform="translate(-17.35)"><rect class="cls-1" y="341.16" width="157.56" height="157.28"/></clipPath><clipPath id="clip-path-23" transform="translate(-17.35)"><rect class="cls-1" y="483.01" width="157.56" height="157.29"/></clipPath><clipPath id="clip-path-24" transform="translate(-17.35)"><rect class="cls-1" y="766.73" width="157.56" height="157.29"/></clipPath><clipPath id="clip-path-25" transform="translate(-17.35)"><rect class="cls-1" y="128.36" width="157.56" height="157.28"/></clipPath><clipPath id="clip-path-26" transform="translate(-17.35)"><rect class="cls-1" x="368.56" y="341.12" width="34.74" height="15.46"/></clipPath><clipPath id="clip-path-27" transform="translate(-17.35)"><rect class="cls-1" x="368.56" y="199.29" width="157.56" height="157.27"/></clipPath><clipPath id="clip-path-28" transform="translate(-17.35)"><rect class="cls-1" y="199.29" width="157.56" height="157.29"/></clipPath></defs><title>triangule</title><g class="cls-2"><g id="Layer_2" data-name="Layer 2"><g id="Layer_1-2" data-name="Layer 1"><g class="cls-3"><g class="cls-4"><g class="cls-5"><polygon class="cls-6" points="245.71 283.72 245.71 425.58 368.57 354.65 245.71 283.72"/></g></g><g class="cls-4"><g class="cls-7"><polygon class="cls-8" points="245.71 425.58 245.71 567.44 368.57 496.51 245.71 425.58"/></g></g><g class="cls-4"><g class="cls-9"><polygon class="cls-10" points="245.73 283.71 245.71 283.72 368.56 354.65 368.56 354.61 245.73 283.71"/></g></g><g class="cls-4"><g class="cls-11"><polygon class="cls-12" points="368.56 212.79 245.73 283.71 368.56 354.62 368.56 212.79"/></g></g><g class="cls-4"><g class="cls-13"><polygon class="cls-14" points="368.56 354.65 368.56 354.65 245.71 425.58 368.56 496.51 368.56 354.65"/></g></g><g class="cls-4"><g class="cls-15"><polygon class="cls-16" points="368.56 496.51 368.56 638.37 491.42 567.44 368.56 496.51"/></g></g><g class="cls-4"><g class="cls-17"><polygon class="cls-18" points="245.71 567.44 245.71 709.3 368.57 638.37 245.71 567.44"/></g></g><g class="cls-4"><g class="cls-19"><polygon class="cls-20" points="368.56 496.51 368.56 496.51 245.71 567.44 368.56 638.37 368.56 496.51"/></g></g><g class="cls-4"><g class="cls-21"><polygon class="cls-22" points="122.86 496.51 122.86 638.37 245.71 567.44 122.86 496.51"/></g></g><g class="cls-4"><g class="cls-23"><polygon class="cls-24" points="245.71 283.72 122.86 354.65 245.71 425.58 245.71 283.72"/></g></g><g class="cls-4"><g class="cls-25"><polygon class="cls-26" points="245.71 425.58 245.71 425.58 122.86 496.51 245.71 567.44 245.71 425.58"/></g></g><g class="cls-4"><g class="cls-27"><polygon class="cls-28" points="122.86 212.79 122.86 354.65 245.71 283.72 122.86 212.79"/></g></g><g class="cls-4"><g class="cls-29"><polygon class="cls-30" points="122.87 212.78 122.86 212.79 245.71 283.72 245.71 283.7 122.87 212.78"/></g></g><g class="cls-4"><g class="cls-31"><polygon class="cls-32" points="245.71 141.86 122.87 212.78 245.71 283.7 245.71 141.86"/></g></g><g class="cls-4"><g class="cls-33"><polygon class="cls-18" points="368.6 354.63 368.56 354.65 491.42 425.58 491.42 425.53 368.6 354.63"/></g></g><g class="cls-4"><g class="cls-34"><polygon class="cls-35" points="491.42 283.72 368.6 354.63 491.42 425.53 491.42 283.72"/></g></g><g class="cls-4"><g class="cls-36"><polygon class="cls-37" points="245.71 567.44 245.71 567.44 122.86 638.37 245.71 709.3 245.71 567.44"/></g></g><g class="cls-4"><g class="cls-38"><polygon class="cls-39" points="0 425.58 0 567.44 122.86 496.51 0 425.58"/></g></g><g class="cls-4"><g class="cls-40"><polygon class="cls-6" points="491.42 425.58 491.42 567.44 614.27 496.51 491.42 425.58"/></g></g><g class="cls-4"><g class="cls-41"><polygon class="cls-42" points="368.56 354.65 368.56 496.51 491.42 425.58 368.56 354.65"/></g></g><g class="cls-4"><g class="cls-43"><polygon class="cls-26" points="0 567.44 0 567.44 0 709.3 122.86 638.37 0 567.44"/></g></g><g class="cls-4"><g class="cls-44"><polygon class="cls-45" points="122.86 354.65 122.86 354.65 0 425.58 122.86 496.51 122.86 354.65"/></g></g><g class="cls-4"><g class="cls-46"><polygon class="cls-47" points="122.86 496.51 122.86 496.51 0 567.44 122.86 638.37 122.86 496.51"/></g></g><g class="cls-4"><g class="cls-48"><polygon class="cls-24" points="122.86 780.23 0 851.16 122.86 922.09 122.86 780.23"/></g></g><g class="cls-4"><g class="cls-49"><polyline class="cls-50" points="0 141.86 0 283.72 122.86 212.79 8.04 146.5 0 141.86"/></g></g><polygon class="cls-51" points="0 0 0 141.86 122.86 70.93 0 0"/><g class="cls-4"><g class="cls-52"><polygon class="cls-53" points="368.56 354.62 368.56 354.65 368.6 354.63 368.56 354.62"/></g></g><g class="cls-4"><g class="cls-54"><polygon class="cls-55" points="368.56 212.79 368.56 354.62 368.6 354.63 491.42 283.72 368.56 212.79"/></g></g><g class="cls-4"><g class="cls-56"><polygon class="cls-57" points="122.86 212.79 122.86 212.79 0 283.72 122.86 354.65 122.86 212.79"/></g></g></g></g></g></g></svg>