<svg xmlns="http://www.w3.org/2000/svg" xmlns:xlink="http://www.w3.org/1999/xlink" viewBox="0 0 791.26 717.08"><defs><style>.cls-1{fill:none;}.cls-2{fill:#99b3c3;}.cls-3{opacity:0.12;fill:url(#_4);}</style><pattern id="_4" data-name="4" width="150" height="150" patternTransform="translate(219.06 180.06) scale(2.97 1.79)" patternUnits="userSpaceOnUse" viewBox="0 0 150 150"><rect class="cls-1" width="150" height="150"/><polygon class="cls-2" points="143.55 303.35 146.86 304.54 300.11 151.28 300.61 148.72 296.65 150.24 143.55 303.35"/><polygon class="cls-2" points="249.08 147.72 148.2 248.6 147.9 253.56 253.99 147.32 249.08 147.72"/><polygon class="cls-2" points="224.66 147.16 147.84 224.01 148.51 227.78 228.87 147.39 224.66 147.16"/><polygon class="cls-2" points="199.24 147.61 148.33 198.52 147.75 203.55 203.76 147.56 199.24 147.61"/><polygon class="cls-2" points="174.06 147.79 148.05 173.82 148.89 177.41 178.48 147.85 174.06 147.79"/><polygon class="cls-2" points="274.21 147.69 146.85 274.9 147.67 278.58 278.64 147.69 274.21 147.69"/><polygon class="cls-2" points="-6.45 303.35 -3.14 304.54 150.11 151.28 150.61 148.72 146.65 150.24 -6.45 303.35"/><polygon class="cls-2" points="99.08 147.72 -1.8 248.6 -2.1 253.56 103.98 147.32 99.08 147.72"/><polygon class="cls-2" points="74.66 147.16 -2.16 224.01 -1.49 227.78 78.87 147.39 74.66 147.16"/><polygon class="cls-2" points="49.23 147.61 -1.67 198.52 -2.25 203.55 53.76 147.56 49.23 147.61"/><polygon class="cls-2" points="24.06 147.79 -1.95 173.82 -1.11 177.41 28.48 147.85 24.06 147.79"/><polygon class="cls-2" points="124.21 147.69 -3.15 274.9 -2.33 278.58 128.64 147.69 124.21 147.69"/><polygon class="cls-2" points="-156.45 303.35 -153.14 304.54 0.11 151.28 0.61 148.72 -3.35 150.24 -156.45 303.35"/><polygon class="cls-2" points="143.55 153.35 146.86 154.53 300.11 1.28 300.61 -1.28 296.65 0.24 143.55 153.35"/><polygon class="cls-2" points="249.08 -2.28 148.2 98.6 147.9 103.56 253.99 -2.68 249.08 -2.28"/><polygon class="cls-2" points="224.66 -2.84 147.84 74.01 148.51 77.78 228.87 -2.61 224.66 -2.84"/><polygon class="cls-2" points="199.24 -2.39 148.33 48.52 147.75 53.55 203.76 -2.44 199.24 -2.39"/><polygon class="cls-2" points="174.06 -2.21 148.05 23.82 148.89 27.41 178.48 -2.15 174.06 -2.21"/><polygon class="cls-2" points="274.21 -2.31 146.85 124.9 147.67 128.58 278.64 -2.31 274.21 -2.31"/><polygon class="cls-2" points="53.09 148.21 149.49 51.8 149.49 47.36 48.65 148.21 53.09 148.21"/><polygon class="cls-2" points="78.07 148.21 149.49 76.79 149.49 72.35 73.63 148.21 78.07 148.21"/><polygon class="cls-2" points="103.06 148.21 149.49 101.77 149.49 97.33 98.62 148.21 103.06 148.21"/><polygon class="cls-2" points="128.04 148.21 149.49 126.76 149.49 122.32 123.61 148.21 128.04 148.21"/><polygon class="cls-2" points="28.1 148.21 149.49 26.82 149.49 22.38 23.66 148.21 28.1 148.21"/><polygon class="cls-2" points="-6.45 153.35 -3.14 154.53 150.11 1.28 150.61 -1.28 146.65 0.24 -6.45 153.35"/><polygon class="cls-2" points="99.08 -2.28 -1.8 98.6 -2.1 103.56 103.98 -2.68 99.08 -2.28"/><polygon class="cls-2" points="74.66 -2.84 -2.16 74.01 -1.49 77.78 78.87 -2.61 74.66 -2.84"/><polygon class="cls-2" points="49.23 -2.39 -1.67 48.52 -2.25 53.55 53.76 -2.44 49.23 -2.39"/><polygon class="cls-2" points="24.06 -2.21 -1.95 23.82 -1.11 27.41 28.48 -2.15 24.06 -2.21"/><polygon class="cls-2" points="124.21 -2.31 -3.15 124.9 -2.33 128.58 128.64 -2.31 124.21 -2.31"/><polygon class="cls-2" points="-156.45 153.35 -153.14 154.53 0.11 1.28 0.61 -1.28 -3.35 0.24 -156.45 153.35"/><polygon class="cls-2" points="143.55 3.35 146.86 4.54 300.11 -148.72 300.61 -151.28 296.65 -149.76 143.55 3.35"/><polygon class="cls-2" points="-6.45 3.35 -3.14 4.54 150.11 -148.72 150.61 -151.28 146.65 -149.76 -6.45 3.35"/><polygon class="cls-2" points="-156.45 3.35 -153.14 4.54 0.11 -148.72 0.61 -151.28 -3.35 -149.76 -156.45 3.35"/></pattern></defs><title>back-title-intro</title><g id="Layer_2" data-name="Layer 2"><g id="Layer_1-2" data-name="Layer 1"><rect class="cls-3" width="791.26" height="717.08"/></g></g></svg>