<!-- Generator: Adobe Illustrator 21.0.2, SVG Export Plug-In  -->
<svg version="1.1"
	 xmlns="http://www.w3.org/2000/svg" xmlns:xlink="http://www.w3.org/1999/xlink" xmlns:a="http://ns.adobe.com/AdobeSVGViewerExtensions/3.0/"
	 x="0px" y="0px" width="272.4px" height="60.8px" viewBox="0 0 272.4 60.8" style="enable-background:new 0 0 272.4 60.8;"
	 xml:space="preserve">
<style type="text/css">
	.st0{fill:#E01F7D;}
</style>
<defs>
</defs>
<g>
	<path d="M0.2,29.4V0h5.7v24.4h12.4v5H0.2z"/>
	<path d="M36.7,23.1l3.1,3.1c-1,1.1-2.2,2-3.7,2.7c-1.5,0.6-3,1-4.6,1c-3.1,0-5.6-1-7.6-2.9c-2-1.9-3-4.5-3-7.7
		c0-2.9,0.9-5.4,2.8-7.5s4.2-3.1,7.2-3.1c2.8,0,5.1,1,6.9,3c1.8,2,2.7,4.5,2.7,7.4c0,0.6,0,1.1-0.1,1.6H26.1
		c0.1,1.4,0.7,2.6,1.8,3.5c1,0.9,2.3,1.3,3.7,1.3C33.5,25.4,35.3,24.6,36.7,23.1z M26.3,16.6h8.4c-0.1-1-0.5-1.8-1.3-2.5
		c-0.8-0.7-1.7-1.1-2.8-1.1c-1.1,0-2.1,0.4-2.9,1.1C27,14.8,26.5,15.6,26.3,16.6z"/>
	<path d="M59.2,22.1l4.2,3.1c-2.3,3.1-5.4,4.6-9.2,4.6c-3.1,0-5.7-1-7.8-3.1c-2.1-2-3.1-4.5-3.1-7.5c0-3,1-5.5,3.2-7.5
		c2.1-2.1,4.7-3.1,7.8-3.1c1.7,0,3.4,0.4,4.9,1.1c1.5,0.7,2.7,1.7,3.7,3l-3.9,3.4c-1.2-1.6-2.8-2.4-4.7-2.4c-1.6,0-2.9,0.5-3.9,1.6
		s-1.6,2.4-1.6,4c0,1.6,0.5,2.9,1.6,4c1,1.1,2.4,1.6,4.1,1.6c1,0,2-0.3,2.8-0.8C58,23.5,58.7,22.8,59.2,22.1z"/>
	<path d="M82.1,24.8l0.8,4.6c-0.8,0.3-1.9,0.4-3.4,0.4c-3.2,0-5.6-1-7.1-2.9c-1-1.3-1.5-3.4-1.5-6.1v-7.1h-5.7V9H71V3.4h5.5V9h6.7
		v4.6h-6.7v7.8c0,1.2,0.2,2,0.7,2.6c0.6,0.7,1.5,1,2.8,1C80.8,25,81.5,24.9,82.1,24.8z"/>
	<path d="M102.3,9h5.5v20.4h-5.2v-1.6c-1.5,1.4-3.4,2.1-5.5,2.1c-2.9,0-5.2-1.1-6.9-3.3c-1.4-1.7-2.1-3.9-2.1-6.7V9h5.5v11
		c0,1.6,0.3,2.7,1,3.5c0.8,0.8,1.8,1.3,3.1,1.3c1.8,0,3.4-0.8,4.7-2.5V9z"/>
	<path d="M127,8.8l-0.6,5.1c-0.4-0.1-1.1-0.2-2-0.2c-1.1,0-2.1,0.3-3,0.9c-0.9,0.6-1.6,1.3-2,2v12.8H114V9h5.2v2.1
		c1.3-1.7,3.3-2.5,5.9-2.5C125.6,8.6,126.3,8.7,127,8.8z"/>
	<path d="M150.8,9v20.4h-5.2v-1.6c-1.6,1.4-3.5,2.1-5.7,2.1c-3.1,0-5.7-1.1-7.7-3.4c-1.7-2-2.6-4.4-2.6-7.1c0-3,1-5.5,2.9-7.6
		s4.3-3.1,7.1-3.1c2.3,0,4.3,0.7,6,2.1V9H150.8z M145.3,22.3v-6.1c-1.3-1.7-2.9-2.5-5-2.5c-1.5,0-2.8,0.6-3.8,1.7
		c-1,1.1-1.5,2.4-1.5,3.9c0,1.6,0.5,2.9,1.5,4c1,1.1,2.3,1.6,3.8,1.6C142.5,24.8,144.1,23.9,145.3,22.3z"/>
	<path class="st0" d="M13,39.8l-0.6,5.1c-0.4-0.1-1.1-0.2-2-0.2c-1.1,0-2.1,0.3-3,0.9c-0.9,0.6-1.6,1.3-2,2v12.8H0V40h5.2v2.1
		c1.3-1.7,3.3-2.5,5.9-2.5C11.6,39.6,12.2,39.7,13,39.8z"/>
	<path class="st0" d="M31.5,54.1l3.1,3.1c-1,1.1-2.2,2-3.7,2.7c-1.5,0.6-3,1-4.6,1c-3.1,0-5.6-1-7.6-2.9c-2-1.9-3-4.5-3-7.7
		c0-2.9,0.9-5.4,2.8-7.5s4.2-3.1,7.2-3.1c2.8,0,5.1,1,6.9,3c1.8,2,2.7,4.5,2.7,7.4c0,0.6,0,1.1-0.1,1.6H20.8
		c0.1,1.4,0.7,2.6,1.8,3.5c1,0.9,2.3,1.3,3.7,1.3C28.3,56.4,30,55.6,31.5,54.1z M21.1,47.6h8.4c-0.1-1-0.5-1.8-1.3-2.5
		c-0.8-0.7-1.7-1.1-2.8-1.1c-1.1,0-2.1,0.4-2.9,1.1C21.7,45.8,21.2,46.6,21.1,47.6z"/>
	<path class="st0" d="M54,53.1l4.2,3.1c-2.3,3.1-5.4,4.6-9.2,4.6c-3.1,0-5.7-1-7.8-3.1c-2.1-2-3.1-4.5-3.1-7.5c0-3,1-5.5,3.2-7.5
		c2.1-2.1,4.7-3.1,7.8-3.1c1.7,0,3.4,0.4,4.9,1.1c1.5,0.7,2.7,1.7,3.7,3l-3.9,3.4c-1.2-1.6-2.8-2.4-4.7-2.4c-1.6,0-2.9,0.5-3.9,1.6
		s-1.6,2.4-1.6,4c0,1.6,0.5,2.9,1.6,4c1,1.1,2.4,1.6,4.1,1.6c1,0,2-0.3,2.8-0.8C52.8,54.5,53.5,53.8,54,53.1z"/>
	<path class="st0" d="M63.8,57.8c-2.1-2-3.1-4.5-3.1-7.5c0-3,1-5.5,3.1-7.5c2.1-2.1,4.6-3.1,7.7-3.1s5.7,1,7.7,3.1
		c2.1,2.1,3.1,4.6,3.1,7.5c0,3-1,5.5-3.1,7.5c-2.1,2-4.6,3.1-7.7,3.1S65.9,59.8,63.8,57.8z M67.7,46.3c-1,1.1-1.5,2.4-1.5,4
		c0,1.6,0.5,2.9,1.5,3.9c1,1.1,2.3,1.6,3.9,1.6s2.9-0.5,3.9-1.6c1-1.1,1.5-2.4,1.5-3.9c0-1.6-0.5-2.9-1.5-4s-2.3-1.6-3.9-1.6
		S68.7,45.2,67.7,46.3z"/>
	<path class="st0" d="M92.4,60.4H87V40h5.2v1.6c1.5-1.4,3.4-2.1,5.5-2.1c2.8,0,5.1,1.1,6.8,3.2c2-2.1,4.4-3.2,7.2-3.2
		c1.4,0,2.7,0.3,4,0.9c1.3,0.6,2.3,1.4,3.1,2.4c1.4,1.7,2.1,3.9,2.1,6.7v10.8h-5.5v-11c0-1.6-0.3-2.7-1-3.5
		c-0.8-0.8-1.8-1.3-3.1-1.3c-1.1,0-2,0.3-2.9,0.8c-0.9,0.6-1.5,1.2-2,1.8c0.1,0.9,0.2,1.7,0.2,2.3v10.8h-5.5v-11
		c0-1.6-0.3-2.7-1-3.5c-0.8-0.8-1.8-1.3-3.1-1.3c-1.8,0-3.4,0.8-4.7,2.5V60.4z"/>
	<path class="st0" d="M141.1,54.1l3.1,3.1c-1,1.1-2.2,2-3.7,2.7c-1.5,0.6-3,1-4.6,1c-3.1,0-5.6-1-7.6-2.9c-2-1.9-3-4.5-3-7.7
		c0-2.9,0.9-5.4,2.8-7.5s4.2-3.1,7.2-3.1c2.8,0,5.1,1,6.9,3c1.8,2,2.7,4.5,2.7,7.4c0,0.6,0,1.1-0.1,1.6h-14.1
		c0.1,1.4,0.7,2.6,1.8,3.5c1,0.9,2.3,1.3,3.7,1.3C138,56.4,139.7,55.6,141.1,54.1z M130.7,47.6h8.4c-0.1-1-0.5-1.8-1.3-2.5
		c-0.8-0.7-1.7-1.1-2.8-1.1c-1.1,0-2.1,0.4-2.9,1.1C131.4,45.8,130.9,46.6,130.7,47.6z"/>
	<path class="st0" d="M154.8,60.4h-5.5V40h5.2v1.6c1.7-1.4,3.6-2.1,5.8-2.1c2.9,0,5.2,1.1,7.1,3.3c1.4,1.7,2.1,4,2.1,7.1v10.4H164
		V49.6c0-1.7-0.4-3-1.2-3.8c-0.8-0.8-1.8-1.1-3.1-1.1c-1,0-2,0.3-2.9,0.8c-0.9,0.5-1.6,1.1-2,1.7V60.4z"/>
	<path class="st0" d="M194.9,60.4h-5.2v-1.6c-1.6,1.4-3.5,2.1-5.7,2.1c-3.1,0-5.7-1.1-7.7-3.4c-1.7-2-2.6-4.4-2.6-7.1
		c0-3,1-5.5,2.9-7.6s4.3-3.1,7.1-3.1c2.2,0,4.2,0.6,5.8,1.9V30.6h5.5V60.4z M189.5,53.3v-6.1c-1.3-1.7-2.9-2.5-5-2.5
		c-1.5,0-2.8,0.6-3.8,1.7c-1,1.1-1.5,2.4-1.5,3.9c0,1.6,0.5,2.9,1.5,4c1,1.1,2.3,1.6,3.8,1.6C186.6,55.8,188.3,54.9,189.5,53.3z"/>
	<path class="st0" d="M220.7,40v20.4h-5.2v-1.6c-1.6,1.4-3.5,2.1-5.7,2.1c-3.1,0-5.7-1.1-7.7-3.4c-1.7-2-2.6-4.4-2.6-7.1
		c0-3,1-5.5,2.9-7.6s4.3-3.1,7.1-3.1c2.3,0,4.3,0.7,6,2.1V40H220.7z M215.3,53.3v-6.1c-1.3-1.7-2.9-2.5-5-2.5
		c-1.5,0-2.8,0.6-3.8,1.7c-1,1.1-1.5,2.4-1.5,3.9c0,1.6,0.5,2.9,1.5,4c1,1.1,2.3,1.6,3.8,1.6C212.5,55.8,214.1,54.9,215.3,53.3z"/>
	<path class="st0" d="M246.6,60.4h-5.2v-1.6c-1.6,1.4-3.5,2.1-5.7,2.1c-3.1,0-5.7-1.1-7.7-3.4c-1.7-2-2.6-4.4-2.6-7.1
		c0-3,1-5.5,2.9-7.6s4.3-3.1,7.1-3.1c2.2,0,4.2,0.6,5.8,1.9V30.6h5.5V60.4z M241.1,53.3v-6.1c-1.3-1.7-2.9-2.5-5-2.5
		c-1.5,0-2.8,0.6-3.8,1.7c-1,1.1-1.5,2.4-1.5,3.9c0,1.6,0.5,2.9,1.5,4c1,1.1,2.3,1.6,3.8,1.6C238.3,55.8,239.9,54.9,241.1,53.3z"/>
	<path class="st0" d="M272.4,40v20.4h-5.2v-1.6c-1.6,1.4-3.5,2.1-5.7,2.1c-3.1,0-5.7-1.1-7.7-3.4c-1.7-2-2.6-4.4-2.6-7.1
		c0-3,1-5.5,2.9-7.6s4.3-3.1,7.1-3.1c2.3,0,4.3,0.7,6,2.1V40H272.4z M266.9,53.3v-6.1c-1.3-1.7-2.9-2.5-5-2.5
		c-1.5,0-2.8,0.6-3.8,1.7c-1,1.1-1.5,2.4-1.5,3.9c0,1.6,0.5,2.9,1.5,4c1,1.1,2.3,1.6,3.8,1.6C264.1,55.8,265.8,54.9,266.9,53.3z"/>
</g>
</svg>
